<svg width="59" height="74" viewBox="0 0 59 74" fill="none" xmlns="http://www.w3.org/2000/svg">
<g clip-path="url(#clip0_16_9)">
<path d="M58.4064 31.1028C57.0093 26.8724 52.1927 23.5198 47.2072 23.305C45.2258 23.2209 43.1211 23.5711 41.1807 24.2855C40.5644 23.1042 39.8522 22.0209 39.0258 21.073C38.0807 19.9897 37.0261 19.1119 35.8665 18.4395C36.5559 9.97395 42.5367 7.20502 42.7923 7.09295C43.3904 6.83614 43.847 6.32251 44.0387 5.69214C44.2305 5.05711 44.1392 4.37072 43.7876 3.81506L42.0345 1.03212C41.5597 0.275688 40.6831 -0.116538 39.8156 0.0375504C28.4567 2.05471 25.3202 11.4775 25.1375 17.529C23.1652 18.2154 21.4349 19.3967 19.9694 21.0777C19.143 22.0256 18.4308 23.1042 17.8145 24.2902C15.8696 23.5758 13.7649 23.2256 11.788 23.3096C6.80248 23.5244 1.98587 26.877 0.588827 31.1075C-0.191874 33.4702 -0.0366471 35.8655 0.145973 37.4578C0.529475 40.7637 1.46084 43.9342 2.36024 47.002C2.74374 48.3187 3.14551 49.6775 3.48336 51.0036C4.50603 54.9819 6.06743 59.3197 8.26344 64.2786C8.97109 65.8755 9.67418 67.3277 10.4138 68.7145C11.6008 70.9464 13.774 72.6554 16.3718 73.4072C17.3488 73.6873 18.3486 73.8274 19.3348 73.8274C20.9418 73.8274 22.5215 73.4585 23.9322 72.7441C25.0919 73.2438 26.1876 73.5426 27.0779 73.7154C27.329 73.8554 27.6075 73.9442 27.9088 73.9722C27.9773 73.9768 28.5754 74.0329 29.4885 73.9955C29.7167 74.0049 29.9268 74.0095 30.1139 74.0095C30.6709 74.0095 31.0225 73.9768 31.0727 73.9722C31.374 73.9442 31.6525 73.8554 31.9036 73.7154C32.7985 73.5426 33.8942 73.2438 35.0492 72.7441C36.46 73.4585 38.0396 73.8274 39.6467 73.8274C40.6374 73.8274 41.6373 73.6873 42.6097 73.4072C45.2121 72.6554 47.3807 70.9418 48.5677 68.7145C49.3027 67.3277 50.0058 65.8802 50.7181 64.2786C52.9141 59.3244 54.4755 54.9819 55.4981 51.0036C55.8405 49.6775 56.2377 48.3187 56.6212 47.002C57.5207 43.9342 58.452 40.7637 58.8355 37.4578C59.0181 35.8655 59.1734 33.4702 58.3927 31.1075L58.4064 31.1028ZM37.6379 5.25789C35.273 7.32175 32.4378 10.9358 31.6342 16.7585C31.0179 16.6278 30.3376 16.5344 29.63 16.5344C29.9815 13.2378 31.5019 7.6346 37.6379 5.25789ZM14.2671 66.5619C13.5822 65.2732 12.9248 63.919 12.2628 62.4202C10.1718 57.6948 8.68803 53.5858 7.72927 49.8549C7.3686 48.4541 6.9577 47.058 6.56507 45.7085C5.67936 42.6921 4.84388 39.8438 4.50603 36.9255C4.29145 35.0811 4.36906 33.685 4.748 32.541C5.55609 30.0989 8.86608 27.923 11.9752 27.7875C13.3403 27.7315 14.7921 27.965 16.1481 28.4366C13.3585 37.5699 14.2442 50.2518 15.3445 59.9548C15.833 64.2786 17.3351 67.2623 19.1796 69.3308C18.6454 69.3168 18.1021 69.2421 17.5725 69.088C16.0978 68.6631 14.8971 67.7432 14.2716 66.5666L14.2671 66.5619ZM30.5614 69.3915C30.397 69.4149 30.2372 69.4569 30.0865 69.5176C29.945 69.5176 29.7807 69.5176 29.598 69.5036C29.5296 69.5036 29.4611 69.5036 29.3972 69.5036C29.2145 69.5129 29.0502 69.5176 28.9086 69.5176C28.758 69.4616 28.5982 69.4149 28.4338 69.3915C24.9047 68.8826 20.5218 66.7393 19.6955 59.4365C17.6136 41.0485 18.8098 29.1463 23.2429 24.0567C24.859 22.203 26.9044 21.3018 29.4976 21.3018C32.0908 21.3018 34.1361 22.203 35.7523 24.0567C40.1854 29.1463 41.3816 41.0532 39.2997 59.4365C38.4734 66.7393 34.0905 68.8779 30.5614 69.3915ZM54.4937 36.9208C54.1559 39.8392 53.3204 42.6875 52.4347 45.7085C52.0375 47.058 51.6266 48.4588 51.2705 49.8549C50.3117 53.5858 48.8279 57.6948 46.7369 62.4202C46.0749 63.919 45.4175 65.2732 44.7327 66.5619C44.1072 67.7386 42.9019 68.6584 41.4318 69.0834C40.9022 69.2374 40.3589 69.3122 39.8248 69.3262C41.6692 67.2576 43.1713 64.2739 43.6598 59.9501C44.7601 50.2472 45.6458 37.5652 42.8563 28.4319C44.2122 27.9603 45.664 27.7222 47.0291 27.7782C50.1382 27.9136 53.4482 30.0895 54.2563 32.5316C54.6398 33.6943 54.7129 35.0437 54.4983 36.9161L54.4937 36.9208Z" fill="#1AC100"/>
</g>
<defs>
<clipPath id="clip0_16_9">
<rect width="59" height="74" fill="white"/>
</clipPath>
</defs>
</svg>
